<svg xmlns="http://www.w3.org/2000/svg" version="1.1" xmlns:xlink="http://www.w3.org/1999/xlink" xmlns:svgjs="http://svgjs.com/svgjs" width="512" height="512" x="0" y="0" viewBox="0 0 512 512" style="enable-background:new 0 0 512 512" xml:space="preserve" class=""><g>
<g>
	<g>
		<path d="M511.645,445.527L469.498,131H356v-31C356,44.86,311.141,0,256,0S156,44.86,156,100v31H42.502L0.416,445.028l-0.061,0.499
			c-1.836,16.917,3.629,33.881,14.993,46.545C26.712,504.736,42.989,512,60.005,512h391.99c17.016,0,33.292-7.263,44.656-19.927
			S513.48,462.444,511.645,445.527z M196,100c0-33.084,26.916-60,60-60s60,26.916,60,60v31H196V100z M466.881,465.358
			c-3.844,4.283-9.13,6.642-14.886,6.642H60.005c-5.756,0-11.042-2.359-14.886-6.642c-3.797-4.232-5.575-9.661-5.02-15.308
			L77.498,171H156v61h40v-61h120v61h40v-61h78.502L471.9,450.05C472.456,455.697,470.678,461.126,466.881,465.358z" fill="#c1bebe" data-original="#000000" class=""></path>
	</g>
</g>
<g>
</g>
<g>
</g>
<g>
</g>
<g>
</g>
<g>
</g>
<g>
</g>
<g>
</g>
<g>
</g>
<g>
</g>
<g>
</g>
<g>
</g>
<g>
</g>
<g>
</g>
<g>
</g>
<g>
</g>
</g></svg>