<svg xmlns="http://www.w3.org/2000/svg" version="1.1" xmlns:xlink="http://www.w3.org/1999/xlink" xmlns:svgjs="http://svgjs.com/svgjs" width="512" height="512" x="0" y="0" viewBox="0 0 512 512" style="enable-background:new 0 0 512 512" xml:space="preserve" class=""><g><path d="m406.566406 75.3125-66.074218-66.074219c-5.960938-5.957031-13.882813-9.238281-22.308594-9.238281h-302.667969c-8.554687 0-15.515625 6.960938-15.515625 15.515625v480.96875c0 8.554687 6.960938 15.515625 15.515625 15.515625h384.773437c8.558594 0 15.515626-6.960938 15.515626-15.515625v-398.863281c0-8.425782-3.28125-16.347656-9.238282-22.308594zm-10.605468 10.609375c.699218.699219 1.316406 1.460937 1.875 2.253906h-69.691407c-.285156 0-.515625-.230469-.515625-.515625v-69.691406c.796875.558594 1.554688 1.175781 2.257813 1.878906zm4.328124 411.078125h-384.773437c-.285156 0-.515625-.230469-.515625-.515625v-480.96875c0-.285156.230469-.515625.515625-.515625h297.113281v72.660156c0 8.558594 6.960938 15.515625 15.515625 15.515625h72.664063v393.308594c-.003906.285156-.234375.515625-.519532.515625zm0 0" fill="#c1bebe" data-original="#000000" class=""></path><path d="m360.210938 208.417969h-16.03125c-4.140626 0-7.5 3.359375-7.5 7.5 0 4.144531 3.359374 7.5 7.5 7.5h8.53125v41.113281h-97.226563v-41.113281h56.632813c4.140624 0 7.5-3.355469 7.5-7.5 0-4.140625-3.359376-7.5-7.5-7.5h-256.519532c-4.144531 0-7.5 3.359375-7.5 7.5v176.355469c0 4.140624 3.355469 7.5 7.5 7.5 4.140625 0 7.5-3.359376 7.5-7.5v-112.742188h49.128906v153.339844h-49.128906v-8.53125c0-4.140625-3.359375-7.5-7.5-7.5-4.144531 0-7.5 3.359375-7.5 7.5v16.03125c0 4.140625 3.355469 7.5 7.5 7.5h304.613282c4.140624 0 7.5-3.359375 7.5-7.5v-224.453125c0-4.140625-3.359376-7.5-7.5-7.5zm-168.855469 168.339843v-41.113281h49.128906v41.113281zm49.128906 15v41.113282h-49.128906v-41.113282zm-113.257813-56.113281h49.128907v41.113281h-49.128907zm64.128907-15v-41.113281h49.128906v41.113281zm64.128906 15h97.226563v41.113281h-97.226563zm97.226563-56.113281v41.113281h-97.226563v-41.113281zm-112.226563-15h-49.128906v-41.113281h49.128906zm-64.128906 0h-49.128907v-41.113281h49.128907zm-113.257813 0v-41.113281h49.128906v41.113281zm113.257813 15v41.113281h-49.128907v-41.113281zm-49.128907 112.226562h49.128907v41.113282h-49.128907zm128.257813 41.113282v-41.113282h97.226563v41.113282zm0 0" fill="#c1bebe" data-original="#000000" class=""></path><path d="m99.683594 144.289062c-10.765625 0-19.523438 8.761719-19.523438 19.527344s8.757813 19.523438 19.523438 19.523438 19.527344-8.761719 19.527344-19.523438c0-10.765625-8.761719-19.527344-19.527344-19.527344zm0 24.050782c-2.492188 0-4.523438-2.03125-4.523438-4.523438 0-2.496094 2.03125-4.527344 4.523438-4.527344 2.496094 0 4.527344 2.03125 4.527344 4.527344 0 2.492188-2.03125 4.523438-4.527344 4.523438zm0 0" fill="#c1bebe" data-original="#000000" class=""></path><path d="m171.828125 144.289062c-10.765625 0-19.523437 8.761719-19.523437 19.527344s8.757812 19.523438 19.523437 19.523438c10.769531 0 19.527344-8.761719 19.527344-19.523438 0-10.765625-8.757813-19.527344-19.527344-19.527344zm0 24.050782c-2.492187 0-4.523437-2.03125-4.523437-4.523438 0-2.496094 2.03125-4.527344 4.523437-4.527344 2.496094 0 4.527344 2.03125 4.527344 4.527344 0 2.492188-2.03125 4.523438-4.527344 4.523438zm0 0" fill="#c1bebe" data-original="#000000" class=""></path><path d="m55.597656 71.113281h4.476563c3.675781 0 6.929687 2.34375 8.09375 5.832031l13.796875 41.398438c4.335937 13 16.660156 21.566406 29.996094 21.566406 1.847656 0 3.710937-.164062 5.578124-.503906l61.074219-11.105469c7.382813-1.339843 12.742188-7.761719 12.742188-15.265625v-25.375c0-8.554687-6.960938-15.515625-15.515625-15.515625h-64.128906c-4.144532 0-7.5 3.359375-7.5 7.5s3.355468 7.5 7.5 7.5h64.128906c.28125 0 .515625.230469.515625.515625v25.375c0 .25-.179688.464844-.425781.507813l-61.074219 11.105469c-8.046875 1.460937-16.074219-3.285157-18.660157-11.046876l-13.796874-41.398437c-3.210938-9.625-12.179688-16.089844-22.328126-16.089844h-4.476562c-4.140625 0-7.5 3.359375-7.5 7.5s3.359375 7.5 7.503906 7.5zm0 0" fill="#c1bebe" data-original="#000000" class=""></path><path d="m223.933594 103.175781h56.113281c4.144531 0 7.5-3.355469 7.5-7.5 0-4.140625-3.355469-7.5-7.5-7.5h-56.113281c-4.140625 0-7.5 3.359375-7.5 7.5 0 4.144531 3.359375 7.5 7.5 7.5zm0 0" fill="#c1bebe" data-original="#000000" class=""></path><path d="m223.933594 135.242188h56.113281c4.144531 0 7.5-3.359376 7.5-7.5 0-4.140626-3.355469-7.5-7.5-7.5h-56.113281c-4.140625 0-7.5 3.359374-7.5 7.5 0 4.140624 3.359375 7.5 7.5 7.5zm0 0" fill="#c1bebe" data-original="#000000" class=""></path><path d="m223.933594 167.308594h104.210937c4.140625 0 7.5-3.359375 7.5-7.5 0-4.144532-3.359375-7.5-7.5-7.5h-104.210937c-4.140625 0-7.5 3.355468-7.5 7.5 0 4.140625 3.359375 7.5 7.5 7.5zm0 0" fill="#c1bebe" data-original="#000000" class=""></path></g></svg>